{"title":"The Murder Case of Hana and Alice [Shunji Iwai, 2015] 720p.x264","uid":14492209,"size":3495414298,"categoryP":"video","categoryS":"hd___movies","magnet":"?xt=urn:btih:eff474c1ae079b577ab522d9835fb19cbd27640b&amp;dn=The+Murder+Case+of+Hana+and+Alice+%5BShunji+Iwai%2C+2015%5D+720p.x264&amp;tr=udp%3A%2F%2Ftracker.leechers-paradise.org%3A6969&amp;tr=udp%3A%2F%2Fzer0day.ch%3A1337&amp;tr=udp%3A%2F%2Fopen.demonii.com%3A1337&amp;tr=udp%3A%2F%2Ftracker.coppersurfer.tk%3A6969&amp;tr=udp%3A%2F%2Fexodus.desync.com%3A6969","seeders":2,"leechers":0,"uploader":null,"files":4,"time":1462113028,"description":"Storyline\r\nAfter her parents separate, 14 year-old Tetsuko (who will soon be nick-named Alice) moves with her mother to a new town in what she calls &quot;The Boonies&quot; and must enroll as a transfer student in a new middle school. She immediately finds herself bullied due being assigned the seat of &quot;Judas&quot; who is said to have been murdered over a year before. She is told that if anybody knows his fate it would be Hana, the recluse in the house next door, who has been unable to bring herself to attend class since &quot;Judas&quot; disappeared.\r\n\r\nGeneral\r\nComplete name                            : C:The.Murder.Case.of.Hana.and.Alice.2015.720p.BluRay.x264-WiKi.mkv\r\nFormat                                   : Matroska\r\nFormat version                           : Version 4 / Version 2\r\nFile size                                : 3.20 GiB\r\nDuration                                 : 1h 38mn\r\nOverall bit rate                         : 4 648 Kbps\r\nMovie name                               : Jubowo @ WiKi\r\nEncoded date                             : UTC 2015-08-15 16:40:00\r\nWriting application                      : mkvmerge v8.2.0 ('World of Adventure') 64bit\r\nWriting library                          : libebml v1.3.1 + libmatroska v1.4.2\r\nDURATION                                 : 01:38:37.910000000\r\nNUMBER_OF_FRAMES                         : 1798\r\nNUMBER_OF_BYTES                          : 70392\r\n_STATISTICS_WRITING_APP                  : mkvmerge v8.2.0 ('World of Adventure') 64bit\r\n_STATISTICS_WRITING_DATE_UTC             : 2015-08-15 16:40:00\r\n_STATISTICS_TAGS                         : BPS DURATION NUMBER_OF_FRAMES NUMBER_OF_BYTES\r\nAttachment                               : Yes / Yes / Yes\r\n\r\nVideo\r\nID                                       : 1\r\nFormat                                   : AVC\r\nFormat/Info                              : Advanced Video Codec\r\nFormat profile                           :   \r\nFormat settings, CABAC                   : Yes\r\nFormat settings, ReFrames                : 9 frames\r\nCodec ID                                 : V_MPEG4/ISO/AVC\r\nDuration                                 : 1h 38mn\r\nBit rate                                 : 3 992 Kbps\r\nWidth                                    : 1 280 pixels\r\nHeight                                   : 720 pixels\r\nDisplay aspect ratio                     : 16:9\r\nFrame rate mode                          : Constant\r\nFrame rate                               : 23.976 fps\r\nColor space                              : YUV\r\nChroma subsampling                       : 4:2:0\r\nBit depth                                : 8 bits\r\nScan type                                : Progressive\r\nBits/(Pixel*Frame)                       : 0.181\r\nStream size                              : 2.70 GiB (84%)\r\nWriting library                          : x264 core 129 r2245+704+36 8e61944 tMod+MixAQ [  :2:0 X86_64]\r\nEncoding settings                        : cabac=1 / ref=9 / deblock=1:-1:-1 / analyse=0x3:0x133 / me=umh / subme=11 / psy=1 / fade_compensate=0.00 / psy_rd=0.60:0.00 / mixed_ref=1 / me_range=32 / chroma_me=1 / trellis=2 / 8x8dct=1 / cqm=0 / deadzone=21,11 / fast_pskip=0 / chroma_qp_offset=-2 / threads=18 / lookahead_threads=3 / sliced_threads=0 / nr=0 / decimate=0 / interlaced=0 / bluray_compat=0 / constrained_intra=0 / fgo=0 / bframes=10 / b_pyramid=2 / b_adapt=2 / b_bias=0 / direct=3 / weightb=1 / open_gop=0 / weightp=2 / keyint=250 / keyint_min=23 / scenecut=40 / intra_refresh=0 / rc=2pass / mbtree=0 / bitrate=3992 / ratetol=1.0 / qcomp=0.70 / qpmin=0 / qpmax=69 / qpstep=4 / cplxblur=20.0 / qblur=0.5 / ip_ratio=1.40 / pb_ratio=1.30 / aq=1 / aq-strength=0.95 / aq-sensitivity=10.00 / aq-ifactor=1.00 / aq-pfactor=1.00 / aq-bfactor=1.00 / aq2=0\r\nLanguage                                 : Japanese\r\nDefault                                  : Yes\r\nForced                                   : No\r\nDURATION                                 : 01:38:39.998000000\r\nNUMBER_OF_FRAMES                         : 141938\r\nNUMBER_OF_BYTES                          : 2947756110\r\n_STATISTICS_WRITING_APP                  : mkvmerge v8.2.0 ('World of Adventure') 64bit\r\n_STATISTICS_WRITING_DATE_UTC             : 2015-08-15 16:40:00\r\n_STATISTICS_TAGS                         : BPS DURATION NUMBER_OF_FRAMES NUMBER_OF_BYTES\r\n\r\nAudio\r\nID                                       : 2\r\nFormat                                   : AC-3\r\nFormat/Info                              : Audio Coding 3\r\nMode extension                           : CM (complete main)\r\nFormat settings, Endianness              : Big\r\nCodec ID                                 : A_AC3\r\nDuration                                 : 1h 38mn\r\nBit rate mode                            : Constant\r\nBit rate                                 : 640 Kbps\r\nChannel(s)                               : 6 channels\r\nChannel positions                        : Front: L C R, Side: L R, LFE\r\nSampling rate                            : 48.0 KHz\r\nBit depth                                : 16 bits\r\nCompression mode                         : Lossy\r\nStream size                              : 452 MiB (14%)\r\nLanguage                                 : Japanese\r\nDefault                                  : Yes\r\nForced                                   : No\r\n\r\nText #1\r\nID                                       : 3\r\nFormat                                   : ASS\r\nCodec ID                                 : S_TEXT/ASS\r\nCodec ID/Info                            : Advanced Sub Station Alpha\r\nCompression mode                         : Lossless\r\nTitle                                    : Simplified\r\nLanguage                                 : Chinese\r\nDefault                                  : Yes\r\nForced                                   : No\r\n\r\nText #2\r\nID                                       : 4\r\nFormat                                   : ASS\r\nCodec ID                                 : S_TEXT/ASS\r\nCodec ID/Info                            : Advanced Sub Station Alpha\r\nCompression mode                         : Lossless\r\nTitle                                    : Traditional\r\nLanguage                                 : Chinese\r\nDefault                                  : No\r\nForced                                   : No\r\n\r\nSynchronized English subtitles are available at opensubtitles(dot)org","torrent":{"xt":"urn:btih:eff474c1ae079b577ab522d9835fb19cbd27640b","amp;dn":"The+Murder+Case+of+Hana+and+Alice+%5BShunji+Iwai%2C+2015%5D+720p.x264","amp;tr":["udp%3A%2F%2Ftracker.leechers-paradise.org%3A6969","udp%3A%2F%2Fzer0day.ch%3A1337","udp%3A%2F%2Fopen.demonii.com%3A1337","udp%3A%2F%2Ftracker.coppersurfer.tk%3A6969","udp%3A%2F%2Fexodus.desync.com%3A6969"],"infoHash":"eff474c1ae079b577ab522d9835fb19cbd27640b","infoHashBuffer":{"type":"Buffer","data":[239,244,116,193,174,7,155,87,122,181,34,217,131,95,177,156,189,39,100,11]},"announce":[],"urlList":[]}}